<svg width="97" height="100" viewBox="0 0 97 100" fill="none" xmlns="http://www.w3.org/2000/svg">
<g filter="url(#filter0_d_2_294)">
<path fill-rule="evenodd" clip-rule="evenodd" d="M67.1862 41.5266C67.9952 50.6366 66.3714 55.1916 60.2891 61.9451C54.6492 67.9443 44.4521 68.7571 38.4862 62.2959C37.7471 61.4949 37.1359 60.5301 36.5073 59.5302C32.759 53.5602 32.2119 49.5841 32.4098 42.1055C32.413 41.9865 32.4162 41.867 32.4194 41.7468C32.446 40.7504 32.4738 39.7111 32.4738 38.6205C33.6012 37.9531 35.576 37.4938 37.9302 36.9461C44.8984 35.3252 55.1912 32.931 56.6747 22.0788C58.3393 29.7035 61.5812 34.7848 66.546 37.0944C66.8428 38.5913 67.0581 40.0707 67.1862 41.5266ZM20.6237 64.1027C18.7554 67.3888 15.9907 69.6634 11.9689 69.985L11.8757 70.0084C11.6953 70.0727 11.6022 70.2774 11.6662 70.4586C12.5334 72.9262 15.9674 74.9376 20.1522 75.9784C13.4298 77.6507 8.75025 79.82 5.57817 83.5739C5.01399 84.2416 4.50088 84.9553 4.03589 85.7214V28.2613C4.03589 12.7974 16.5719 0.261322 32.0359 0.261322H64.2275C79.6915 0.261322 92.2275 12.7973 92.2275 28.2613V82.2059C88.9156 79.1684 84.2742 77.3163 77.8723 75.7504C82.6508 74.8324 86.6435 72.9437 87.5515 70.4996L87.5864 70.3651C87.5981 70.1721 87.4525 69.9967 87.2605 69.985C82.5751 69.6049 79.2168 65.5587 76.912 60.0681C73.705 52.4317 72.5234 42.0002 72.5583 34.5801V34.545C72.2673 31.522 71.5922 28.7914 70.6144 26.3648C68.49 21.0847 64.9163 17.208 60.6849 14.7697C56.4594 12.3432 51.5528 11.3433 46.7511 11.8169C44.493 12.0385 42.2782 12.584 40.1741 13.4366C26.2694 19.0791 25.4138 32.3523 24.6281 44.6432C24.4709 47.1575 24.3079 49.6308 24.0518 51.9405C23.5397 56.3961 22.5327 60.7756 20.6237 64.1027ZM65.0385 75.6802C65.6555 75.8322 66.2899 75.955 66.9475 76.0544C68.8391 76.5865 70.6667 76.9491 71.9647 77.2063L72.1859 77.2531C73.705 77.563 75.1425 77.8671 76.4987 78.1887C67.1862 87.7313 58.0948 91.9998 49.2014 91.7308C40.3313 91.4618 31.5135 86.6847 22.7597 78.136C23.6677 77.9372 24.6106 77.7384 25.5942 77.5455C26.0907 77.4438 26.635 77.3541 27.2273 77.2566C27.3502 77.2363 27.4752 77.2157 27.6022 77.1946C30.6928 76.6918 34.9184 75.996 37.5433 74.3938C39.1672 73.3998 40.2265 68.4355 40.2556 66.7457L40.6398 66.962C46.3146 70.6399 52.3036 70.6458 58.0134 67.0672C57.379 69.9032 58.3219 72.0199 60.2251 73.5226C61.4765 74.5049 63.1469 75.2183 65.0385 75.6802Z" fill="white" fill-opacity="0.75" shape-rendering="crispEdges"/>
</g>
<defs>
<filter id="filter0_d_2_294" x="0.0358887" y="0.261322" width="96.1916" height="99.4814" filterUnits="userSpaceOnUse" color-interpolation-filters="sRGB">
<feFlood flood-opacity="0" result="BackgroundImageFix"/>
<feColorMatrix in="SourceAlpha" type="matrix" values="0 0 0 0 0 0 0 0 0 0 0 0 0 0 0 0 0 0 127 0" result="hardAlpha"/>
<feOffset dy="4"/>
<feGaussianBlur stdDeviation="2"/>
<feComposite in2="hardAlpha" operator="out"/>
<feColorMatrix type="matrix" values="0 0 0 0 0 0 0 0 0 0 0 0 0 0 0 0 0 0 0.25 0"/>
<feBlend mode="normal" in2="BackgroundImageFix" result="effect1_dropShadow_2_294"/>
<feBlend mode="normal" in="SourceGraphic" in2="effect1_dropShadow_2_294" result="shape"/>
</filter>
</defs>
</svg>
