<svg width="22" height="22" viewBox="0 0 22 22" fill="none" xmlns="http://www.w3.org/2000/svg">
<g clip-path="url(#clip0_3_1161)">
<path d="M21.9785 15.5319C21.9269 16.7009 21.7379 17.5045 21.4671 18.2009C21.1878 18.9401 20.758 19.6018 20.1949 20.152C19.6448 20.7107 18.9786 21.1448 18.248 21.4198C17.5476 21.6906 16.7482 21.8796 15.5793 21.9312C14.4016 21.9871 14.0277 22 11.0408 22C8.05389 22 7.68002 21.9871 6.50671 21.9355C5.33777 21.884 4.53413 21.6948 3.83793 21.4242C3.09859 21.1448 2.43681 20.7151 1.88667 20.152C1.32796 19.6018 0.893996 18.9357 0.618842 18.2051C0.348052 17.5045 0.15902 16.7052 0.107481 15.5363C0.0515772 14.3586 0.0386505 13.9848 0.0386505 10.9979C0.0386505 8.01094 0.0515772 7.63707 0.103116 6.46376C0.154655 5.29482 0.343855 4.49118 0.614645 3.79482C0.893996 3.05564 1.32796 2.39386 1.88667 1.84372C2.43681 1.28502 3.10295 0.850882 3.83357 0.575893C4.53413 0.305105 5.3334 0.116072 6.50251 0.0645332C7.67566 0.0128269 8.04969 6.67572e-05 11.0366 6.67572e-05C14.0235 6.67572e-05 14.3974 0.0128269 15.5707 0.0645332C16.7396 0.116072 17.5433 0.305105 18.2395 0.575893C19.718 1.14752 20.8869 2.31647 21.4586 3.79482C21.7292 4.49538 21.9184 5.29482 21.9699 6.46376C22.0215 7.63707 22.0344 8.01094 22.0344 10.9979C22.0344 13.9848 22.03 14.3586 21.9785 15.5319ZM19.9973 6.54972C19.95 5.47529 19.7695 4.8951 19.6191 4.5083C19.2494 3.54988 18.4888 2.78922 17.5303 2.41955C17.1436 2.26913 16.5592 2.08866 15.4889 2.04148C14.3286 1.98977 13.9805 1.97702 11.0452 1.97702C8.10979 1.97702 7.75741 1.98977 6.60123 2.04148C5.5268 2.08866 4.94661 2.26913 4.55981 2.41955C4.08287 2.59582 3.64873 2.87517 3.29635 3.24048C2.93105 3.59722 2.65169 4.02699 2.47542 4.50394C2.325 4.89073 2.14453 5.47529 2.09736 6.54535C2.04565 7.70574 2.03289 8.05392 2.03289 10.9893C2.03289 13.9247 2.04565 14.277 2.09736 15.4331C2.14453 16.5075 2.325 17.0877 2.47542 17.4745C2.65169 17.9516 2.93105 18.3856 3.30072 18.7381C3.65729 19.1034 4.08706 19.3828 4.56418 19.5589C4.95097 19.7093 5.53553 19.8898 6.60559 19.9371C7.76597 19.9886 8.11416 20.0016 11.0494 20.0016C13.9891 20.0016 14.3371 19.9886 15.4933 19.9371C16.5677 19.8898 17.1479 19.7093 17.5347 19.5589C18.0117 19.3828 18.4458 19.1034 18.7982 18.7381C19.1635 18.3814 19.4428 17.9516 19.6191 17.4745C19.7695 17.0877 19.95 16.5033 19.9973 15.4331C20.0489 14.2727 20.0618 13.9247 20.0618 10.9893C20.0618 8.05392 20.0489 7.7101 19.9973 6.54972Z" fill="black"/>
<path d="M11.0408 16.6494C7.92075 16.6494 5.3893 14.1181 5.3893 10.9979C5.3893 7.87765 7.92075 5.34636 11.0408 5.34636C14.161 5.34636 16.6923 7.87765 16.6923 10.9979C16.6923 14.1181 14.161 16.6494 11.0408 16.6494ZM11.0408 7.33188C9.01667 7.33188 7.37481 8.97357 7.37481 10.9979C7.37481 13.0221 9.01667 14.6638 11.0408 14.6638C13.0651 14.6638 14.7068 13.0221 14.7068 10.9979C14.7068 8.97357 13.0651 7.33188 11.0408 7.33188Z" fill="black"/>
<path d="M18.2353 16.8728C18.2353 16.1442 17.6445 15.5534 16.9157 15.5534C16.1871 15.5534 15.5964 16.1442 15.5964 16.8728C15.5964 17.6016 16.1871 18.1922 16.9157 18.1922C17.6445 18.1922 18.2353 17.6016 18.2353 16.8728Z" fill="black"/>
</g>
<defs>
<clipPath id="clip0_3_1161">
<rect width="22" height="22" fill="white" transform="matrix(1 0 0 -1 0 22)"/>
</clipPath>
</defs>
</svg>
