<svg width="97" height="96" viewBox="0 0 97 96" fill="none" xmlns="http://www.w3.org/2000/svg">
<g filter="url(#filter0_d_2_291)">
<path fill-rule="evenodd" clip-rule="evenodd" d="M32 0C16.536 0 4 12.536 4 28V87.9533C8.01437 83.67 13.0863 80.4494 18.0961 79.7781C26.0897 78.7108 34.1506 77.6313 36.9313 67.8368L36.1979 67.2025L36.1943 67.1994C32.8408 64.3161 30.0314 61.9007 29.4999 56.0358L29.2065 56.0419C28.5147 56.0421 27.8347 55.8635 27.2326 55.5235C26.2303 54.9624 25.5336 53.9866 25.063 52.895C24.5008 51.5959 24.2441 50.0774 24.1891 48.943V46.9487L24.293 45.2411L24.3785 44.9118C25.0814 42.9663 26.1631 42.3381 27.5809 42.3808L26.6398 41.7587C26.5406 40.5218 26.5176 39.1074 26.4933 37.6167C26.3936 31.4853 26.2729 24.0633 20.7423 22.3953C33.7534 6.34348 48.7507 -2.38378 60.014 11.8933C73.5874 12.6069 79.0265 34.1231 68.2032 43.1797L68.1421 43.7164C68.5638 43.5822 68.9916 43.5029 69.395 43.4725C70.1955 43.4115 70.9595 43.5395 71.6134 43.8872C72.3223 44.2653 72.8723 44.8813 73.1535 45.7473C73.4224 46.5889 73.4285 47.6562 73.0801 48.9674C72.5729 50.5348 71.9556 52.3034 71.3567 53.8342C71.0939 54.566 70.8433 55.0966 70.3117 55.5174L70.2811 55.5357C69.7311 55.9687 69.0466 56.1273 68.0199 56.0724L67.5493 56.0175C67.4515 60.9087 65.2392 63.3909 62.2446 66.239C65.0852 76.1208 72.9268 77.6362 80.624 79.1236L80.6338 79.1255C84.7781 79.9239 88.8265 82.8694 92.1916 86.6312V28C92.1916 12.536 79.6556 0 64.1916 0H32ZM60.0751 68.282L60.2401 68.1295C60.8635 72.4535 63.2775 76.4909 67.9343 78.5949C55.6566 87.6881 43.1771 87.9138 30.5205 80.2111C34.8901 78.0887 37.9091 74.338 39.0825 69.6298C42.2665 72.0144 45.6217 73.2403 48.9707 73.2342C51.8675 73.2342 54.7399 72.3133 57.4655 70.4288C58.1745 69.9958 58.8162 69.4957 59.3784 68.9285L60.0751 68.282ZM26.8353 45.7168C27.2509 44.7654 28.3387 45.0154 29.8727 45.546L31.0338 45.9729C31.3548 46.09 31.7092 46.0756 32.0195 45.9328C32.3299 45.7899 32.5709 45.5303 32.69 45.2106C32.7756 44.9727 32.7878 44.7227 32.745 44.4848C32.2072 42.0515 32.2439 39.9047 32.8856 38.0751C33.5151 36.276 34.7557 34.7147 36.6074 33.4401C40.5052 30.7454 43.4624 30.3788 46.4132 30.013L46.4162 30.0126C49.9852 29.5735 53.5726 29.1283 58.645 25.2434C60.9368 26.4875 63.0513 28.1647 64.3775 30.9213C65.887 34.0621 66.4432 38.685 65.227 45.7656C65.1109 46.4669 65.5814 47.1378 66.2843 47.2537C66.6448 47.3146 66.9993 47.2171 67.2743 47.0158C68.026 46.4486 68.8694 46.101 69.5905 46.0461C69.9205 46.0156 70.2078 46.0583 70.3972 46.1559C70.5317 46.223 70.6356 46.3571 70.7028 46.5462C70.8189 46.9121 70.8006 47.4854 70.5928 48.266C70.4177 48.7621 70.2462 49.2647 70.074 49.7692C69.6451 51.0261 69.212 52.295 68.7105 53.5048L68.1299 53.4987L67.586 53.3829L66.9015 53.023C66.3087 52.6388 65.502 52.8035 65.117 53.3951C64.952 53.639 64.8909 53.9256 64.9031 54.2001C65.3737 59.7682 62.9352 62.0613 59.629 65.1595L58.2845 66.428C55.3266 69.2822 52.1425 70.6666 48.9707 70.6605C45.695 70.6605 42.3582 69.2029 39.1986 66.3975L37.8786 65.251C34.7312 62.5492 32.1339 60.3171 31.9933 54.4867C31.9811 53.7793 31.3822 53.2182 30.6733 53.2304L30.2944 53.3036C29.9155 53.4073 29.5549 53.4743 29.2371 53.4743C28.9743 53.4682 28.7237 53.4134 28.5037 53.2914C28.0576 53.0352 27.697 52.4985 27.4281 51.8765C27.0064 50.8946 26.8109 49.7114 26.7681 48.8088V47.0097L26.8353 45.7168Z" fill="white"/>
</g>
<defs>
<filter id="filter0_d_2_291" x="0" y="0" width="96.1916" height="95.9532" filterUnits="userSpaceOnUse" color-interpolation-filters="sRGB">
<feFlood flood-opacity="0" result="BackgroundImageFix"/>
<feColorMatrix in="SourceAlpha" type="matrix" values="0 0 0 0 0 0 0 0 0 0 0 0 0 0 0 0 0 0 127 0" result="hardAlpha"/>
<feOffset dy="4"/>
<feGaussianBlur stdDeviation="2"/>
<feComposite in2="hardAlpha" operator="out"/>
<feColorMatrix type="matrix" values="0 0 0 0 0 0 0 0 0 0 0 0 0 0 0 0 0 0 0.25 0"/>
<feBlend mode="normal" in2="BackgroundImageFix" result="effect1_dropShadow_2_291"/>
<feBlend mode="normal" in="SourceGraphic" in2="effect1_dropShadow_2_291" result="shape"/>
</filter>
</defs>
</svg>
